Coordinates
version=1
nRows=20
nColumns=34
inDegrees=yes

Units are S.I. units (second, meters, Newtons, ...)
If the header above contains a line with 'inDegrees', this indicates whether rotational values are in degrees (yes) or radians (no).

endheader
time	pelvis_tilt	pelvis_list	pelvis_rotation	pelvis_tx	pelvis_ty	pelvis_tz	hip_flexion_r	hip_adduction_r	hip_rotation_r	knee_angle_r	ankle_angle_r	subtalar_angle_r	mtp_angle_r	hip_flexion_l	hip_adduction_l	hip_rotation_l	knee_angle_l	ankle_angle_l	subtalar_angle_l	mtp_angle_l	lumbar_extension	lumbar_bending	lumbar_rotation	arm_flex_r	arm_add_r	arm_rot_r	elbow_flex_r	pro_sup_r	arm_flex_l	arm_add_l	arm_rot_l	elbow_flex_l	pro_sup_l
      0.00000000	      8.75185005	     -0.82013342	     -7.30038693	    -11.78341947	      0.97233207	      0.70643473	    -20.56424255	      4.43410737	     -9.22421717	      9.48632697	      2.80387695	    -16.18177774	      0.00000000	      5.10179543	     -2.78268783	      7.15903413	     18.90719049	     -3.30080869	    -18.69320334	      0.00000000	     -8.72466920	      9.86379048	    -32.10688216	   -211.31407565	     19.71064091	     79.81430275	      0.00000000	     49.83398199	   -112.17930243	    -20.75686860	    200.84818164	     89.82363929	     50.18558826
      0.01666670	     12.22175659	      1.95995934	     -6.99832036	    -11.78492946	      0.98384534	      0.70615705	    -22.66311089	      1.84325435	    -11.56606566	      9.00039380	      1.50217341	    -18.27563162	      0.00000000	      0.62273645	      1.97250098	      7.98657566	     18.16535311	     -5.07181924	    -20.01825701	      0.00000000	    -13.66460809	      8.09026737	    -33.33699278	   -208.69591933	     24.03113050	     79.35965990	      0.00000000	     49.07414513	   -106.19960360	    -20.09222107	    203.04506949	     93.46104644	     50.56499352
      0.03333330	     13.20885450	      3.86114505	     -6.07462685	    -11.78592217	      0.98806109	      0.70635293	    -23.94368319	      0.46266678	    -14.40790793	      7.55261835	      0.25165357	    -19.14250242	      0.00000000	     -1.57519343	      4.46740157	      8.52345271	     16.05616709	     -6.05246752	    -19.69664100	      0.00000000	    -14.07301003	      6.76250519	    -35.36294266	   -209.67540514	     26.83774616	     79.35427039	      0.00000000	     48.94652383	   -102.85386744	    -21.38375322	    203.30405373	     95.72396159	     50.86064826
      0.05000000	     14.75722252	      4.16844962	     -5.58548649	    -11.78888431	      0.99307983	      0.70505340	    -25.66301224	      0.14957773	    -15.89361304	      6.77594861	     -1.27701639	    -19.81987007	      0.00000000	     -4.12034893	      5.12924206	      9.17493228	     14.42244924	     -8.46784579	    -21.36627396	      0.00000000	    -16.38600137	      7.43265332	    -35.21612389	   -208.40245635	     28.59988000	     78.79799493	      0.00000000	     48.32969137	    -99.30440127	    -23.39191873	    202.87815880	     96.42621300	     52.97881501
      0.06666670	     15.58334143	      3.94822410	     -5.01766772	    -11.79049624	      0.99552967	      0.70265806	    -26.70875378	      0.61312922	    -16.91229870	      5.74261438	     -3.26420109	    -20.69036512	      0.00000000	     -5.21801164	      5.08429983	      9.19695562	     14.01760204	     -9.48908236	    -21.78484984	      0.00000000	    -18.14278525	      8.52472494	    -35.07909554	   -206.80962449	     29.46803436	     78.81116400	      0.00000000	     48.11361588	    -97.26380633	    -24.05573745	    202.93720295	     96.24013164	     55.23531933
      0.08333330	     15.77241446	      3.62983603	     -4.41262216	    -11.78892765	      0.99515245	      0.69956788	    -27.45071311	      1.22348484	    -18.37013250	      4.29955524	     -5.40551788	    -20.05202508	      0.00000000	     -4.93639407	      4.93673996	      8.96453762	     15.13262540	     -9.73004037	    -21.98575535	      0.00000000	    -18.70419219	      9.19409898	    -35.42325630	   -206.47743953	     29.67923950	     78.87396913	      0.00000000	     48.09635727	    -96.73944820	    -23.74513281	    203.13385936	     96.57220546	     55.55361842
      0.10000000	     15.96471327	      3.40498096	     -3.89887927	    -11.78542365	      0.99432490	      0.69663165	    -28.41494289	      1.81555472	    -19.29628057	      2.61002813	     -8.57902070	    -21.47084484	      0.00000000	     -4.45987313	      5.00172545	      9.34486194	     16.91715249	    -10.64410689	    -24.36487327	      0.00000000	    -19.30405666	      9.90108485	    -35.59915021	   -205.38585601	     29.80540309	     79.25342308	      0.00000000	     47.55281309	    -96.27239066	    -23.23712816	    203.82172956	     96.38120744	     58.30235766
      0.11666670	     15.96504001	      3.16054681	     -3.60758655	    -11.78099748	      0.99646310	      0.69424705	    -29.25914355	      2.31667739	    -20.59128523	      1.11889283	    -10.54867722	    -20.49065033	      0.00000000	     -3.96427268	      4.95335272	      9.03787485	     18.60402500	    -10.43594149	    -24.74190428	      0.00000000	    -19.29129040	     10.38551977	    -35.77842096	   -205.08191676	     29.93241366	     79.28404159	      0.00000000	     47.46551840	    -96.06619738	    -22.93687785	    204.09969283	     96.47299362	     58.49414909
      0.13333330	     15.94588541	      3.04531770	     -3.40248812	    -11.77609508	      0.99747191	      0.69188115	    -30.00000025	      2.57260999	    -21.32430607	      0.10989186	    -11.89631567	    -19.78587570	      0.00000000	     -3.66064049	      5.01400295	      8.73711221	     19.93955952	    -10.31527328	    -25.16476222	      0.00000000	    -19.03852416	     10.69205395	    -36.07544197	   -204.82486702	     30.14181862	     79.28825439	      0.00000000	     47.35861000	    -95.87702733	    -22.84596218	    204.46888506	     96.55958305	     58.62153839
      0.15000000	     15.37116495	      2.85025529	     -3.11119099	    -11.76993943	      0.99753962	      0.68831130	    -29.80405407	      2.73827590	    -21.91894788	      0.00000000	    -12.78562514	    -19.04987028	      0.00000000	     -2.89067368	      5.11619456	      9.27848034	     21.06126613	    -10.25309834	    -25.83888955	      0.00000000	    -17.98197543	     11.44738605	    -36.47023042	   -204.61231563	     30.85170838	     79.25180469	      0.00000000	     46.92445233	    -95.03826344	    -22.75273247	    205.58963026	     96.76613975	     58.96078014
      0.16666670	     15.13513176	      2.80696962	     -3.02009229	    -11.76447024	      0.99567306	      0.68563513	    -30.00000025	      2.62950044	    -21.39253734	      0.00000000	    -12.99186038	    -18.48287678	      0.00000000	     -2.88173367	      5.26143558	      9.25349490	     21.38906540	    -10.23290496	    -25.98922980	      0.00000000	    -17.35651365	     11.68976158	    -36.56201308	   -204.48632843	     31.05083494	     79.24287371	      0.00000000	     46.81454528	    -95.01622984	    -22.78992456	    205.69989053	     96.70479237	     59.01562756
      0.18333330	     14.78355440	      2.89869489	     -2.73117495	    -11.76187720	      0.99656128	      0.68339478	    -30.00000025	      2.49671530	    -20.55782121	      0.00000000	    -12.83780313	    -17.92077330	      0.00000000	     -3.05559740	      5.46491197	      9.52802413	     21.00784911	    -10.32140777	    -25.98064399	      0.00000000	    -16.62805332	     11.84585826	    -36.78892467	   -204.32982839	     31.29265862	     79.23822013	      0.00000000	     46.71795856	    -94.90992577	    -22.83546562	    205.85264520	     96.60970464	     59.05760875
      0.20000000	     14.57030464	      3.21252672	     -2.40604293	    -11.76194753	      0.99812489	      0.68205479	    -30.00000025	      2.20953638	    -19.73979859	      0.00000000	    -11.88662995	    -16.99286597	      0.00000000	     -3.70388918	      5.75686398	      9.61388094	     19.77167213	    -11.28854226	    -26.00577356	      0.00000000	    -16.05407948	     11.73922357	    -37.22227023	   -204.67324052	     31.83938647	     79.20922012	      0.00000000	     46.42680715	    -94.26721497	    -22.87791615	    206.36451743	     96.44433779	     59.19184829
      0.21666670	     14.42797020	      3.43321775	     -1.59488339	    -11.76291187	      0.99783251	      0.68027826	    -29.95089919	      2.26987576	    -18.98761841	      0.00000000	    -11.77070278	    -16.56572536	      0.00000000	     -3.99569950	      5.89159005	     10.04113931	     19.02987342	    -12.06513898	    -25.55817979	      0.00000000	    -16.01978376	     11.71396083	    -37.58029034	   -204.40149978	     31.86588374	     79.19239952	      0.00000000	     46.34244543	    -94.48154397	    -23.04509325	    206.39063083	     96.48468253	     59.22281274
      0.23333330	     14.60631695	      3.89046785	     -1.04471785	    -11.76290946	      0.99656729	      0.67957139	    -30.00000025	      1.94279197	    -18.46715592	      0.48767374	    -10.56286097	    -16.11078619	      0.00000000	     -4.67573981	      6.26625386	     10.47110198	     18.01109476	    -14.10436151	    -25.71272604	      0.00000000	    -16.49390326	     11.23692670	    -37.94012368	   -204.34164564	     31.97949761	     79.06198949	      0.00000000	     45.85158475	    -94.67192187	    -23.16427929	    206.16065394	     96.09223047	     59.34659861
      0.25000000	     14.61041800	      3.98666228	     -0.29680202	    -11.76324471	      0.99588563	      0.67747519	    -29.70214698	      1.96558662	    -17.79909772	      1.28256127	    -10.11266549	    -15.98971374	      0.00000000	     -4.45934111	      6.39395853	     11.26541862	     18.20884108	    -14.80075468	    -25.37717198	      0.00000000	    -16.95419672	     11.31635961	    -38.04269722	   -204.12547360	     31.85464068	     79.01766053	      0.00000000	     45.69688517	    -95.02496530	    -23.19461103	    205.93356601	     96.03208794	     59.37277317
      0.26666670	     14.53192592	      4.05055779	      0.44317207	    -11.76420223	      0.99595932	      0.67482828	    -29.08177706	      1.95916508	    -17.01167224	      2.50445250	     -8.45568141	    -16.12628454	      0.00000000	     -3.67137237	      6.61697389	     12.12850956	     19.16356167	    -15.23995186	    -26.14291031	      0.00000000	    -17.39671144	     11.39865917	    -38.26097667	   -203.65603814	     31.59586045	     78.87160444	      0.00000000	     45.13882739	    -95.20029851	    -22.98476025	    205.11928724	     95.56271077	     59.43812698
      0.28333330	     14.22668145	      3.98907111	      1.33509143	    -11.76278453	      0.99522081	      0.67159178	    -28.35835277	      2.17771576	    -16.43451165	      3.44539910	     -7.01310328	    -15.87549711	      0.00000000	     -2.50503199	      6.80067281	     13.38260403	     20.37098627	    -16.07112077	    -27.32426076	      0.00000000	    -16.95150850	     11.71174940	    -39.12830482	   -203.90526542	     31.87617878	     78.61476232	      0.00000000	     43.47619058	    -94.75400280	    -22.66030888	    204.86952216	     95.33458285	     59.77381058
      0.30000000	     14.49889251	      4.04014442	      1.81089217	    -11.75817066	      0.99512108	      0.66896528	    -28.36298387	      2.15187822	    -15.63420695	      4.28470936	     -5.95339484	    -16.27428842	      0.00000000	     -2.26965653	      7.06242450	     13.98618351	     21.24266640	    -15.72707770	    -27.35342244	      0.00000000	    -16.96332792	     11.77131664	    -39.51181351	   -203.97496903	     31.83523090	     78.63451152	      0.00000000	     43.21576796	    -94.69336851	    -22.63053020	    204.72043729	     95.21924463	     59.81999849
      0.31666670	     14.68220466	      4.13578477	      2.06796216	    -11.75186417	      0.99586620	      0.66687865	    -28.58933836	      2.03108141	    -15.16766958	      4.76172429	     -5.50344105	    -16.44853013	      0.00000000	     -2.38545413	      7.31294395	     14.36706098	     21.56980562	    -15.33308338	    -27.44244792	      0.00000000	    -16.48376146	     11.72966011	    -40.26428162	   -204.32354303	     32.10378405	     78.66231904	      0.00000000	     42.94947438	    -94.23598365	    -22.47876842	    204.55264151	     94.96994096	     59.85376462
